<?xml version="1.0" encoding="UTF-8"?>
<svg width="234px" height="200px" viewBox="0 0 234 200" version="1.1" xmlns="http://www.w3.org/2000/svg" xmlns:xlink="http://www.w3.org/1999/xlink">
    <!-- Generator: Sketch 41 (35326) - http://www.bohemiancoding.com/sketch -->
    <defs>
        <style>
            #logo-main {
                stroke-dasharray: 1800;
                stroke-dashoffset:0;
                -webkit-animation: dash 2.5s linear forwards;
                -moz-animation: dash 2.5s linear forwards;
                animation: dash 2.5s linear forwards;
            }

            @-webkit-keyframes dash {
                from {
                    stroke-dashoffset: 1800;
                }
                to {
                    stroke-dashoffset: 0;
                }
            }

        </style>
    </defs>


    <g id="logo-main" stroke="none" stroke-width="1" fill="none" fill-rule="evenodd">
        <g id="logo-main" transform="translate(-770.000000, -306.000000)" fill="#FFFFFF">
            <g id="logo-main" transform="translate(1.000000, 1.000000)">
                <g id="logo-main" transform="translate(150.000000, 56.000000)">
                    <path  id="logo-main" d="M808.793701,371.624973 C808.449776,371.809488 808.10585,371.984292 807.75708,372.159096 C816.946194,355.47503 820.496863,338.237418 821.237999,322.903227 C836.569335,322.611887 847.594333,325.136833 847.594333,325.136833 C847.594333,325.136833 839.3934,355.513875 808.793701,371.624973 Z M801.324216,372.363034 C801.634234,368.50278 801.798931,366.599359 801.798931,362.77795 C801.798931,349.308335 799.449579,337.072058 796.121735,326.049698 C803.31511,324.291947 810.348633,323.413071 816.796029,323.063464 C815.79816,338.9075 812.005289,355.086577 801.324216,372.363034 Z M773.931261,283.577193 C795.545296,276.973488 811.719492,277.303673 811.719492,277.303673 C811.719492,277.303673 817.798742,295.240501 816.980102,319.310034 C810.096744,319.645075 802.622415,320.548229 794.949481,322.364248 C789.776063,306.971789 782.078909,294.06543 773.931261,283.577193 Z M774.091114,329.710869 C773.180437,330.152735 772.284293,330.618879 771.397837,331.09959 C769.484447,328.327005 767.319169,325.559276 764.868092,322.815825 C756.507307,313.458957 747.613679,305.854986 738.652235,299.673724 C749.459252,292.846658 760.251738,288.102673 770.099638,284.805676 C778.232754,295.055986 786.031633,307.870087 791.258335,323.306247 C785.552075,324.869771 779.777998,326.952851 774.091114,329.710869 Z M779.81675,371.882323 L779.807062,371.882323 C779.811906,372.086261 779.811906,372.290199 779.81675,372.494137 C779.797374,374.635485 779.705338,376.742844 779.564861,378.811357 L779.618145,378.806502 C776.416245,423.847653 736.254443,444.081211 736.254443,444.081211 C736.254443,444.081211 694.290664,423.590303 691.461754,377.942193 C691.374561,376.2767 691.321277,374.577217 691.311589,372.8486 C691.316433,372.523271 691.321277,372.202797 691.326121,371.882323 L691.311589,371.882323 C691.355185,360.84054 693.370299,348.560562 700.476482,336.489378 C716.878347,346.317245 734.544503,376.558329 735.658628,378.79679 L738.10486,374.300444 C743.980661,363.83163 755.02988,346.831945 770.656701,336.450533 C777.762884,348.516861 779.845814,360.767705 779.81675,371.882323 Z M697.042069,329.710869 C691.243773,326.899439 685.348596,324.782369 679.530923,323.209134 C684.777001,307.768118 692.595255,294.954017 700.733216,284.703707 C710.663465,288.00556 721.567363,292.778679 732.485792,299.673724 C723.524348,305.854986 714.625876,313.458957 706.269935,322.815825 C703.818859,325.559276 701.65358,328.327005 699.740191,331.09959 C698.853734,330.618879 697.95759,330.152735 697.042069,329.710869 Z M676.115886,322.344825 C668.467172,320.543373 661.017064,319.645075 654.153082,319.310034 C653.339286,295.240501 659.418536,277.303673 659.418536,277.303673 C659.418536,277.303673 675.558823,276.973488 697.143794,283.562626 C688.991302,294.046007 681.294148,306.957222 676.115886,322.344825 Z M669.261592,362.77795 C669.261592,366.550802 669.421445,368.730996 669.721775,372.542693 C659.108518,355.309937 655.335023,338.863799 654.337155,323.063464 C660.765174,323.413071 667.774477,324.287091 674.943632,326.030275 C671.615788,337.062347 669.261592,349.303479 669.261592,362.77795 Z M662.344326,371.624973 C631.744627,355.513875 623.53885,325.136833 623.53885,325.136833 C623.53885,325.136833 634.568693,322.611887 649.900029,322.903227 C650.641164,338.237418 654.191834,355.47503 663.376103,372.159096 C663.032177,371.984292 662.683408,371.809488 662.344326,371.624973 Z M761.835733,324.525019 C764.301342,327.287892 766.461776,330.070189 768.35579,332.867052 C752.942106,342.374445 742.183528,359.087645 735.566592,371.008303 C728.954499,359.087645 718.195922,342.374445 702.782238,332.867052 C704.671407,330.070189 706.836686,327.287892 709.302294,324.525019 C717.643703,315.182719 726.580927,307.690427 735.566592,301.679113 C744.5571,307.690427 753.48948,315.182719 761.835733,324.525019 Z M735.377675,253.52548 C735.377675,253.52548 751.677815,262.785234 767.604966,281.751463 C757.480956,285.364078 746.51893,290.452815 735.566592,297.600354 C724.512529,290.37998 713.443934,285.266964 703.237576,281.644638 C719.140507,262.751244 735.377675,253.52548 735.377675,253.52548 Z M821.363943,319.164364 C821.891942,292.768967 814.451521,272.880162 814.451521,272.880162 C814.451521,272.880162 795.821405,272.42373 771.417213,280.440433 C754.022323,259.303722 735.52784,249 735.52784,249 C735.52784,249 717.047888,259.298866 699.657842,280.42101 C675.282714,272.42373 656.686506,272.880162 656.686506,272.880162 C656.686506,272.880162 649.246085,292.768967 649.774084,319.164364 C631.889948,318.868169 619,322.155454 619,322.155454 C619,322.155454 624.851581,356.737503 659.651049,375.067639 C662.111813,376.359246 664.645237,377.529462 667.231946,378.592852 C667.26101,378.646265 667.294919,378.694821 667.328827,378.743378 L674.691743,381.695623 C673.776223,379.865037 673.039931,367.565636 673.039931,363.132414 C673.039931,349.81818 675.045357,337.756707 678.339293,326.923717 C683.285041,328.312438 688.274386,330.138168 693.16685,332.507733 C694.595837,333.197237 695.99576,333.954721 697.361775,334.760761 C689.417576,347.798223 687.140885,360.893952 687.174793,372.858312 C687.174793,372.931147 687.169949,373.003982 687.169949,373.081672 C687.169949,373.217631 687.174793,373.35359 687.174793,373.489548 C687.179637,373.659496 687.179637,373.829445 687.184481,374.004249 C687.199013,375.558062 687.257141,377.087596 687.358866,378.592852 C687.358866,378.641409 687.36371,378.694821 687.36371,378.743378 L687.368554,378.743378 C690.691554,427.61565 736.254443,449 736.254443,449 C736.254443,449 784.026207,425.969579 784.026207,373.081672 C784.026207,372.678652 784.016519,372.280488 784.006831,371.882323 L783.958391,371.882323 C783.83729,360.160747 781.42981,347.356357 773.68906,334.658792 C775.059919,333.852752 776.537346,333.197237 777.971177,332.507733 C782.747385,330.19158 787.615629,328.39984 792.449965,327.020831 C795.724525,337.829542 797.720263,349.857025 797.720263,363.132414 C797.720263,367.609337 796.126579,381.870427 796.286432,381.914128 C796.426908,381.957829 803.804357,378.743378 803.804357,378.743378 C803.838265,378.694821 803.872173,378.646265 803.906081,378.592852 C806.49279,377.529462 809.026215,376.359246 811.486979,375.067639 C846.286447,356.737503 852.138027,322.155454 852.138027,322.155454 C852.138027,322.155454 839.243236,318.868169 821.363943,319.164364 L821.363943,319.164364 Z" ></path>
                </g>
            </g>
        </g>
    </g>
</svg>